<svg xmlns="http://www.w3.org/2000/svg" width="88.178" height="80.303" viewBox="0 0 88.178 80.303">
  <path id="Icon_simple-instagram" data-name="Icon simple-instagram" d="M44.089,0C32.111,0,30.616.05,25.913.241a35.313,35.313,0,0,0-10.7,1.867A21.913,21.913,0,0,0,7.4,6.739a19.509,19.509,0,0,0-5.085,7.113A27.234,27.234,0,0,0,.265,23.6C.044,27.882,0,29.244,0,40.151S.055,52.421.265,56.7a27.331,27.331,0,0,0,2.05,9.747A19.608,19.608,0,0,0,7.4,73.564a21.882,21.882,0,0,0,7.811,4.631,35.357,35.357,0,0,0,10.7,1.867c4.7.2,6.2.241,18.176.241s13.473-.05,18.176-.241a35.439,35.439,0,0,0,10.7-1.867,21.994,21.994,0,0,0,7.811-4.631,19.525,19.525,0,0,0,5.085-7.113,27.331,27.331,0,0,0,2.05-9.747c.22-4.283.265-5.645.265-16.552s-.055-12.27-.265-16.552a27.394,27.394,0,0,0-2.05-9.747,19.624,19.624,0,0,0-5.085-7.113,21.8,21.8,0,0,0-7.811-4.631A35.231,35.231,0,0,0,62.265.241C57.562.04,56.066,0,44.089,0Zm0,7.227c11.768,0,13.172.054,17.819.238A26.378,26.378,0,0,1,70.09,8.853a13.9,13.9,0,0,1,5.078,3,12.355,12.355,0,0,1,3.292,4.621,20.456,20.456,0,0,1,1.517,7.451c.209,4.236.257,5.507.257,16.228s-.055,12-.272,16.228a20.857,20.857,0,0,1-1.547,7.451,12.7,12.7,0,0,1-3.3,4.624,13.956,13.956,0,0,1-5.07,3,26.633,26.633,0,0,1-8.212,1.382c-4.681.191-6.059.234-17.852.234s-13.175-.05-17.852-.248a27.145,27.145,0,0,1-8.215-1.409A13.846,13.846,0,0,1,12.845,68.4a12.151,12.151,0,0,1-3.307-4.617,21.03,21.03,0,0,1-1.543-7.478c-.165-4.216-.224-5.517-.224-16.208s.059-12,.224-16.265a21.006,21.006,0,0,1,1.543-7.475,11.863,11.863,0,0,1,3.307-4.621,13.225,13.225,0,0,1,5.067-3,26.491,26.491,0,0,1,8.16-1.409c4.684-.151,6.062-.2,17.852-.2l.165.1Zm0,12.306c-12.51,0-22.64,9.235-22.64,20.618s10.14,20.618,22.64,20.618,22.64-9.235,22.64-20.618S56.588,19.534,44.089,19.534Zm0,34c-8.12,0-14.7-5.989-14.7-13.384s6.577-13.384,14.7-13.384,14.7,5.989,14.7,13.384S52.209,53.535,44.089,53.535ZM72.916,18.721a5.314,5.314,0,0,1-10.581,0,5.314,5.314,0,0,1,10.581,0Z" fill="#fff"/>
</svg>
