<svg xmlns="http://www.w3.org/2000/svg" width="85.215" height="65.32" viewBox="0 0 85.215 65.32">
  <path id="Icon_feather-twitter" data-name="Icon feather-twitter" d="M83.715,4.52A42.1,42.1,0,0,1,71.981,9.833a17.6,17.6,0,0,0-18.6-4.325,15.615,15.615,0,0,0-10.77,14.741v3.472c-13.339.321-25.965-5.583-33.633-15.729,0,0-14.948,31.249,18.685,45.137A45.957,45.957,0,0,1,1.5,60.074c33.633,17.36,74.741,0,74.741-39.929a14.553,14.553,0,0,0-.3-2.882A26.392,26.392,0,0,0,83.715,4.52Z" transform="translate(0 -2.968)" fill="#fff" stroke="#000" stroke-linecap="round" stroke-linejoin="round" stroke-width="3"/>
</svg>
